<?xml version="1.0" encoding="UTF-8"?>
<svg width="200px" height="200px" viewBox="0 0 200 200" version="1.1" xmlns="http://www.w3.org/2000/svg">
    <title>Offline Image</title>
    <g stroke="none" stroke-width="1" fill="none" fill-rule="evenodd">
        <rect fill="#F3F4F6" x="0" y="0" width="200" height="200"></rect>
        <g transform="translate(50.000000, 50.000000)" fill="#9CA3AF" fill-rule="nonzero">
            <path d="M50,0 C77.6142375,0 100,22.3857625 100,50 C100,77.6142375 77.6142375,100 50,100 C22.3857625,100 0,77.6142375 0,50 C0,22.3857625 22.3857625,0 50,0 Z M50,10 C27.90861,10 10,27.90861 10,50 C10,72.09139 27.90861,90 50,90 C72.09139,90 90,72.09139 90,50 C90,27.90861 72.09139,10 50,10 Z"></path>
            <path d="M35,35 L65,35 C67.7614237,35 70,37.2385763 70,40 L70,60 C70,62.7614237 67.7614237,65 65,65 L35,65 C32.2385763,65 30,62.7614237 30,60 L30,40 C30,37.2385763 32.2385763,35 35,35 Z M35,45 L35,60 L65,60 L65,45 L35,45 Z M45,50 C46.6568542,50 48,51.3431458 48,53 C48,54.6568542 46.6568542,56 45,56 C43.3431458,56 42,54.6568542 42,53 C42,51.3431458 43.3431458,50 45,50 Z M55,50 C56.6568542,50 58,51.3431458 58,53 C58,54.6568542 56.6568542,56 55,56 C53.3431458,56 52,54.6568542 52,53 C52,51.3431458 53.3431458,50 55,50 Z"></path>
        </g>
        <text font-family="system-ui, -apple-system, sans-serif" font-size="14" font-weight="500" fill="#6B7280">
            <tspan x="60" y="170">Image Unavailable</tspan>
        </text>
    </g>
</svg>
